<svg xmlns:xlink="http://www.w3.org/1999/xlink" xmlns="http://www.w3.org/2000/svg" version="1.1" viewBox="0 0 2055.0417 1601.01385" height="1rem" width="1rem">
    <title>乒乓球拍</title>
    <g fill-rule="evenodd" fill="none" stroke-width="1" stroke="none" id="页面-1">
        <g transform="translate(0.581395, 0.500000)" id="乒乓球拍">
            <path stroke="#FEC581" id="路径" d="M367.344134,193.221983 C386.066319,142.656081 393.907235,81.8489832 390.066786,27.6026513 C389.328733,17.4634387 383.466692,8.40222516 374.520997,3.57284645 C365.575302,-1.25653225 354.783447,-1.18600965 345.901631,3.75986825 C290.695187,34.6434731 334.380286,144.256268 355.342733,193.542021 C356.338928,196.028064 358.777578,197.631047 361.454838,197.559654 C364.132097,197.48826 366.48185,195.757586 367.344134,193.221983"></path>
            <path stroke="#FEC581" id="路径" d="M110.834193,74.488124 C103.95339,121.373597 215.646427,218.344916 260.451657,248.428427 C269.412703,254.402458 272.826435,252.108857 270.692852,241.547624 C261.411769,194.982189 222.207193,66.0071341 180.122281,41.0442203 C153.399161,25.2023711 115.314716,44.0845752 110.834193,74.488124"></path>
            <path stroke="#80818C" id="路径" d="M1017.17999,215.944636 C1017.17999,149.839481 963.59117,96.2506642 897.486015,96.2506642 C831.38086,96.2506642 777.792044,149.839481 777.792044,215.944636 C777.792044,282.049791 831.38086,335.638607 897.486015,335.638607 C963.59117,335.638607 1017.17999,282.049791 1017.17999,215.944636"></path>
            <path stroke="#80879F" id="路径" d="M1069.50609,196.262338 C1169.67779,202.343048 1252.56746,242.02768 1324.41585,310.99573 C1326.76279,313.235992 1328.94971,313.129313 1330.97661,310.675693 C1332.04341,309.395544 1333.37689,308.168734 1334.97708,306.995263 C1338.71085,304.008248 1338.87087,300.861214 1335.45714,297.554161 C1260.78175,225.759114 1171.33131,186.661217 1067.10581,180.26047 C1064.22548,180.047112 1062.78531,181.380601 1062.78531,184.260937 C1062.78531,185.647766 1062.73197,187.034594 1062.62529,188.421423 C1062.30525,193.328662 1064.59885,195.942301 1069.50609,196.262338"></path>
            <path stroke="#FEC581" id="路径" d="M175.641758,295.3139 C138.357406,255.949305 93.5521756,222.345383 50.0270952,202.023011 C8.26222018,182.500732 -26.461833,248.428427 27.9445176,271.471117 C74.7766507,291.100075 122.248859,302.674759 170.361141,306.19517 C181.45577,307.048603 183.215975,303.421513 175.641758,295.3139"></path>
            <path stroke="#80879F" id="路径" d="M1059.58494,256.269342 C1138.15411,294.353788 1198.32113,320.436832 1238.16578,398.20591 C1240.83276,403.219829 1244.77989,404.659997 1250.00716,402.526414 C1254.48769,400.60619 1255.82117,397.619175 1254.00763,393.565368 C1221.52384,322.037019 1130.79325,256.109324 1063.26537,244.747998 C1035.20876,239.947437 1033.98195,243.787886 1059.58494,256.269342"></path>
            <path stroke="#80879F" id="路径" d="M757.949727,1237.50388 C717.304983,1133.97179 797.154304,1073.80477 833.9586,1007.71706 C993.497222,720.643547 773.471539,256.109324 410.22914,314.996197 C163.320319,355.000867 48.4269084,543.982926 79.6305506,783.370868 C107.58048,998.222614 230.154787,1137.65222 447.353473,1201.65969 C529.123018,1225.82251 548.005222,1246.14489 571.687986,1323.75394 C591.530302,1388.61485 611.265939,1453.47575 630.894897,1518.33666 C663.858745,1626.98934 740.827729,1577.06351 825.797647,1543.93965 C854.921046,1532.57832 857.161308,1488.89322 845.799982,1460.4099 C816.356545,1386.16123 787.073127,1311.85922 757.949727,1237.50388"></path>
            <path stroke="#80818C" id="路径" d="M1191.60035,1044.20131 C1225.20427,1110.28903 1276.73028,1164.21532 1236.40558,1241.9844 C1197.78773,1316.76646 1159.22323,1391.54852 1120.71207,1466.33059 C1069.02604,1566.6623 1290.17185,1636.1104 1314.33467,1579.94385 C1349.32542,1498.441 1383.4094,1416.40476 1416.58661,1333.83512 C1438.50917,1279.10873 1479.954,1254.46586 1541.56119,1245.66483 C1710.22088,1221.76871 1832.74185,1135.62532 1909.1241,987.234664 C1970.09121,868.820843 1990.73362,688.639811 1927.68626,567.025615 C1862.8787,442.211046 1711.34101,355.960979 1574.84508,352.600587 C1442.82967,349.560232 1339.77764,423.008805 1256.24789,523.820572 C1136.55392,668.15742 1105.19026,873.94144 1191.60035,1044.20131"></path>
            <path stroke="#FEC581" id="路径" d="M2015.85656,1382.32078 L2053.941,1325.67417 C2053.96959,1325.62466 2053.96959,1325.56366 2053.941,1325.51415 L2052.1808,1324.39402 C1966.94794,1266.89894 1889.30566,1232.76496 1878.56053,1248.06511 L1878.24049,1248.70518 C1873.15745,1256.1377 1884.603,1274.27837 1910.05558,1299.13065 C1935.50817,1323.98294 1972.87948,1353.50779 2013.93633,1381.20065 L2015.69654,1382.32078 C2015.74605,1382.34937 2015.80705,1382.34937 2015.85656,1382.32078"></path>
            <path stroke="#FEC581" id="路径" d="M1914.88477,1460.56991 C1902.08328,1421.84539 1838.07581,1346.4766 1795.83087,1304.23167 C1787.93662,1296.33741 1784.14951,1297.9376 1784.46955,1309.03223 C1786.60313,1372.93302 1800.15138,1434.00681 1825.11429,1492.25361 C1854.55773,1560.58159 1936.96735,1526.49761 1914.88477,1460.56991"></path>
            <path stroke="#FEC581" id="路径" d="M1718.54185,1484.89275 C1712.9412,1441.36767 1711.50103,1398.64269 1699.01957,1357.03783 C1698.29037,1354.26429 1695.90595,1352.26664 1693.02773,1352.0179 C1690.14952,1351.76917 1687.37597,1353.32107 1686.05806,1355.9177 C1661.62854,1405.31013 1646.74681,1457.26286 1641.41285,1511.77589 C1640.98613,1516.68313 1642.21294,1521.16365 1645.09328,1525.21746 C1679.81733,1573.70312 1724.14251,1528.0978 1718.54185,1484.89275"></path>
            <path stroke="#696C7B" id="路径" d="M799.394565,258.669623 C868.095918,339.105678 927.409508,345.186388 977.335335,276.911752 C1018.78017,220.105121 1003.09834,165.218715 951.412309,123.45384"></path>
            <path stroke="#80818C" id="路径" d="M951.412309,123.45384 C836.198861,95.6105895 785.52628,140.682517 799.394565,258.669623"></path>
            <path stroke="#E8EAEE" id="路径" d="M951.412309,123.45384 C949.705443,153.964068 950.07882,184.154258 952.53244,214.024411 C956.21287,258.349585 920.688723,268.910818 882.924315,259.309697 C857.321327,252.802271 829.478077,252.588913 799.394565,258.669623"></path>
            <path stroke="#E8EAEE" id="路径" d="M823.877423,217.224785 C846.120019,176.099985 860.5217,167.779013 904.686855,147.936697 C911.40764,144.949682 911.620998,141.482611 905.32693,137.535483 C897.486015,132.734923 889.485081,139.13567 884.204465,140.415819 C843.453041,150.336977 821.210445,175.299891 817.476676,215.304561 C816.516564,226.29251 818.650146,226.932585 823.877423,217.224785"></path>
            <path stroke="#603E7B" id="路径" d="M111.314249,582.547427 C63.8420411,760.914914 99.0994898,916.826446 217.086595,1050.28202 C264.452124,1103.83494 322.325546,1140.8526 390.706861,1161.33499"></path>
            <path stroke="#372C87" id="路径" d="M390.706861,1161.33499 C474.876686,1193.81878 553.765894,1203.4199 582.249219,1304.87174 C603.90508,1381.89406 627.001109,1458.43633 651.537306,1534.49854 C661.298446,1564.90209 684.181117,1582.50415 714.744684,1565.38215"></path>
            <line stroke="#605728" id="路径" y2="1536.09873" x2="802.754957" y1="1565.38215" x1="714.744684"></line>
            <path stroke="#49369E" id="路径" d="M802.754957,1536.09873 C837.212313,1525.21746 847.400169,1502.22811 833.318525,1467.13068 C804.8352,1395.54899 775.76514,1324.12732 746.108345,1252.86567 C702.583265,1148.21345 756.989615,1103.72826 802.114883,1020.67857"></path>
            <path stroke="#804E8F" id="路径" d="M802.114883,1020.67857 C884.684521,890.316685 896.045847,752.433924 836.198861,607.030285 C724.825861,336.758738 435.352072,226.825906 200.76469,430.369664 C151.478937,473.25467 121.662123,523.980591 111.314249,582.547427"></path>
            <path stroke="#C876EE" id="路径" d="M802.114883,1020.67857 C727.119462,1038.70734 653.990926,1062.49678 582.729275,1092.0469"></path>
            <line stroke="#B66CD7" id="路径" y2="1092.68697" x2="571.367949" y1="1092.0469" x1="582.729275"></line>
            <path stroke="#DF7ECB" id="路径" d="M571.367949,1092.68697 C564.113769,1083.08585 554.512648,1076.25839 542.564587,1072.20458 C467.835864,1046.76161 387.826525,1024.83905 329.259689,971.392815 C216.179823,868.234107 143.531343,738.618978 111.314249,582.547427"></path>
            <line stroke="#B68D67" id="路径" y2="1145.33312" x2="618.733477" y1="1141.33265" x1="622.733944"></line>
            <path stroke="#96756F" id="路径" d="M618.733477,1145.33312 C596.117504,1152.37394 588.063231,1167.09566 594.570657,1189.49827 C631.054916,1315.91303 671.112925,1441.20765 714.744684,1565.38215"></path>
            <line stroke="#965CC3" id="路径" y2="1161.33499" x2="390.706861" y1="1092.68697" x1="571.367949"></line>
            <path stroke="#A87F87" id="路径" d="M802.754957,1536.09873 C794.220628,1496.52078 780.779059,1460.08986 762.43025,1426.80597"></path>
            <path stroke="#C8977F" id="路径" d="M762.43025,1426.80597 C732.880135,1336.44876 699.809608,1248.81186 663.21867,1163.89529 C655.751132,1146.61327 642.256223,1139.09239 622.733944,1141.33265"></path>
            <path stroke="#7F54E6" id="路径" d="M622.733944,1141.33265 C605.238569,1128.3178 591.903679,1111.88921 582.729275,1092.0469"></path>
            <path stroke="#DFB708" id="路径" d="M762.43025,1426.80597 C717.198304,1405.57683 688.288263,1370.10602 675.700127,1320.39355 C660.445013,1260.8666 641.45613,1202.51313 618.733477,1145.33312"></path>
            <path stroke="#F1B2EF" id="路径" d="M453.914239,404.606657 C619.69359,438.050561 726.586067,550.223654 793.473874,698.881006 C794.690165,701.47887 797.058973,703.353644 799.845222,703.923559 C802.631472,704.493473 805.498087,703.689582 807.555518,701.761342 C815.396433,694.560502 806.755424,686.079512 804.8352,679.678765 C762.270232,535.341917 620.81372,378.84365 454.554314,392.605256 C451.570016,392.905288 449.250239,395.336537 449.090501,398.331622 C448.930764,401.326707 450.978783,403.990906 453.914239,404.606657"></path>
            <path stroke="#804E8F" id="路径" d="M591.85034,594.868865 C591.85034,576.575059 577.020279,561.744999 558.726473,561.744999 C540.432667,561.744999 525.602607,576.575059 525.602607,594.868865 C525.602607,613.162672 540.432667,627.992732 558.726473,627.992732 C577.020279,627.992732 591.85034,613.162672 591.85034,594.868865"></path>
            <path stroke="#804E8F" id="路径" d="M463.51536,694.240465 C449.711725,704.037974 430.707381,701.443285 420.150298,688.319774 L396.467533,659.356393 C384.946189,645.16807 381.852494,646.874936 387.18645,664.47699 C413.429513,751.047095 530.243148,712.96265 494.398964,622.392078 C493.332173,619.831779 491.678647,619.405063 489.438385,621.111929 L484.157769,624.952377 C481.064075,627.192638 480.210642,630.126314 481.59747,633.753404 C491.411949,658.396281 485.384579,678.558634 463.51536,694.240465"></path>
            <path stroke="#FE4BC9" id="路径" d="M641.812971,654.744654 C636.67064,637.926772 609.345603,631.372947 580.780247,640.106146 C552.215131,648.839428 533.226442,669.552538 538.367297,686.370746 C543.509628,703.188628 570.834666,709.742453 599.400021,701.009255 C627.965137,692.275972 646.953826,671.562862 641.812971,654.744654"></path>
            <path stroke="#804E8F" id="路径" d="M350.382154,679.198709 C350.382154,660.993278 335.623737,646.234861 317.418306,646.234861 C308.67575,646.234861 300.291267,649.707828 294.109346,655.889749 C287.927426,662.071669 284.454459,670.456153 284.454459,679.198709 C284.454459,687.941265 287.927426,696.325748 294.109346,702.507669 C300.291267,708.68959 308.67575,712.162557 317.418306,712.162557 C335.623737,712.162557 350.382154,697.404139 350.382154,679.198709"></path>
            <path stroke="#FE4BC9" id="路径" d="M389.957974,738.469627 C383.440668,721.755267 355.997379,716.845622 328.661219,727.503547 C301.325037,738.161617 284.447529,760.351406 290.964019,777.066132 C297.481325,793.780493 324.924613,798.690138 352.260773,788.032212 C379.596955,777.374143 396.474463,755.184354 389.957974,738.469627"></path>
            <path stroke="#603968" id="路径" d="M1402.98502,416.928095 C1192.72048,543.342851 1093.82893,807.533689 1206.32206,1031.55984"></path>
            <path stroke="#372774" id="路径" d="M1206.32206,1031.55984 C1246.48675,1114.92957 1293.85228,1165.81551 1243.12636,1261.34666 C1204.50852,1333.88846 1166.69077,1406.59028 1129.67312,1479.45212 C1114.73804,1509.00223 1122.89899,1529.43129 1154.15597,1540.73927"></path>
            <line stroke="#605115" id="路径" y2="1584.74441" x2="1246.16671" y1="1540.73927" x1="1154.15597"></line>
            <path stroke="#49318B" id="路径" d="M1246.16671,1584.74441 C1278.97054,1597.38588 1298.65284,1581.38402 1311.45434,1550.82045 C1342.71132,1475.71835 1373.4349,1400.50957 1403.62509,1325.19411 C1438.50917,1237.82391 1518.99856,1233.50341 1599.0079,1218.30164"></path>
            <path stroke="#80487C" id="路径" d="M1599.0079,1218.30164 C1823.35409,1145.65316 1939.26095,987.608041 1946.72849,744.166292 C1955.52951,458.212914 1645.41332,286.992929 1402.98502,416.928095"></path>
            <path stroke="#C876EE" id="路径" d="M1599.0079,1218.30164 C1535.53382,1171.68286 1466.35242,1136.47875 1391.46367,1112.68931"></path>
            <line stroke="#B66CD7" id="路径" y2="1104.0483" x2="1382.82267" y1="1112.68931" x1="1391.46367"></line>
            <path stroke="#DF7ECB" id="路径" d="M1382.82267,1104.0483 C1345.05826,965.792161 1266.96914,884.82271 1292.09208,733.765078 C1308.09394,637.967229 1345.05826,532.354902 1402.98502,416.928095"></path>
            <line stroke="#7F54E6" id="路径" y2="1168.69585" x2="1378.18212" y1="1112.68931" x1="1391.46367"></line>
            <path stroke="#96756F" id="路径" d="M1378.18212,1168.69585 C1355.03276,1164.64204 1339.56428,1170.29603 1331.77671,1185.65783 C1272.5698,1304.07165 1213.36289,1422.43213 1154.15597,1540.73927"></path>
            <line stroke="#A87F87" id="路径" y2="1485.21279" x2="1284.41118" y1="1584.74441" x1="1246.16671"></line>
            <path stroke="#C8977F" id="路径" d="M1284.41118,1485.21279 C1349.6988,1344.28967 1389.17007,1254.78589 1402.825,1216.70145 C1409.33243,1198.45932 1401.54485,1183.79094 1379.46227,1172.69631"></path>
            <path stroke="#A87F87" id="路径" d="M1379.46227,1172.69631 C1379.03556,1171.41616 1378.60884,1170.08267 1378.18212,1168.69585"></path>
            <line stroke="#965CC3" id="路径" y2="1031.55984" x2="1206.32206" y1="1104.0483" x1="1382.82267"></line>
            <path stroke="#DFB708" id="路径" d="M1379.46227,1172.69631 C1363.24705,1217.50154 1338.12411,1268.5475 1304.09348,1325.83419 C1275.29011,1374.26651 1268.72935,1427.39271 1284.41118,1485.21279"></path>
            <path stroke="#F1B2EF" id="路径" d="M1778.38884,527.981058 C1877.28038,672.317906 1873.91999,817.134809 1816.47328,977.953581 C1814.88527,982.0934 1816.82237,986.751255 1820.87768,988.544127 C1824.93299,990.337 1829.68181,988.63503 1831.67506,984.674366 C1912.16445,836.49707 1914.08468,644.314637 1788.47001,519.500068 C1786.95503,517.699239 1784.5944,516.843439 1782.27734,517.255038 C1779.96029,517.666637 1778.03883,519.283105 1777.23676,521.495533 C1776.43468,523.707961 1776.87386,526.180229 1778.38884,527.981058"></path>
            <path stroke="#804E8F" id="路径" d="M1524.27918,628.952844 C1524.27918,610.659038 1509.44912,595.828978 1491.15531,595.828978 C1472.8615,595.828978 1458.03144,610.659038 1458.03144,628.952844 C1458.03144,647.24665 1472.8615,662.07671 1491.15531,662.07671 C1509.44912,662.07671 1524.27918,647.24665 1524.27918,628.952844"></path>
            <path stroke="#FE4BC9" id="路径" d="M1502.1646,723.75911 C1505.48441,715.62519 1503.36072,705.65838 1496.26076,696.051413 C1489.16079,686.444445 1477.66618,677.984333 1464.30578,672.532331 C1450.94591,667.080253 1436.81462,665.082631 1425.02064,666.978922 C1413.22667,668.875213 1404.73612,674.510082 1401.41684,682.643911 C1398.09702,690.777831 1400.22071,700.744641 1407.32068,710.351609 C1414.42064,719.958576 1425.91525,728.418688 1439.27566,733.87069 C1452.63552,739.322768 1466.76681,741.32039 1478.56079,739.424099 C1490.35477,737.527808 1498.84531,731.89294 1502.1646,723.75911"></path>
            <path stroke="#FFC6EF" id="路径" d="M1538.2008,678.238597 C1497.8761,746.406554 1598.52784,812.014212 1652.77418,748.966853 C1657.21695,743.832877 1659.31168,737.075637 1658.55191,730.328882 C1657.79214,723.582127 1654.24703,717.460004 1648.77371,713.442706 C1619.86367,692.533599 1587.69991,678.665313 1552.28245,671.83785 C1546.09506,670.664379 1541.40118,672.797962 1538.2008,678.238597"></path>
            <path stroke="#804E8F" id="路径" d="M1758.70654,738.40562 C1758.70654,719.846686 1743.66155,704.801697 1725.10262,704.801697 C1706.54368,704.801697 1691.4987,719.846686 1691.4987,738.40562 C1691.4987,756.964554 1706.54368,772.009542 1725.10262,772.009542 C1743.66155,772.009542 1758.70654,756.964554 1758.70654,738.40562"></path>
            <path stroke="#FE4BC9" id="路径" d="M1742.67907,839.118175 C1746.60031,831.114693 1745.28896,820.954185 1739.03349,810.871915 C1732.77802,800.789645 1722.09088,791.611526 1709.32318,785.3567 C1696.55546,779.101818 1682.75306,776.282615 1670.95244,777.519305 C1659.15183,778.755994 1650.31968,783.947269 1646.39903,791.95107 C1642.47779,799.954553 1643.78915,810.11506 1650.04461,820.19733 C1656.30008,830.279601 1666.98722,839.457719 1679.75493,845.712545 C1692.52264,851.967427 1706.32504,854.78663 1718.12566,853.549941 C1729.92627,852.313251 1738.75843,847.121976 1742.67907,839.118175"></path>
            <path fill-rule="nonzero" fill="#FD8A02" id="路径" d="M390.066786,27.6026513 C393.907235,81.8489832 386.066319,142.656081 367.344134,193.221983 C366.48185,195.757586 364.132097,197.48826 361.454838,197.559654 C358.777578,197.631047 356.338928,196.028064 355.342733,193.542021 C334.380286,144.256268 290.695187,34.6434731 345.901631,3.75986825 C354.783447,-1.18600965 365.575302,-1.25653225 374.520997,3.57284645 C383.466692,8.40222516 389.328733,17.4634387 390.066786,27.6026513 L390.066786,27.6026513 Z"></path>
            <path fill-rule="nonzero" fill="#FD8A02" id="路径" d="M260.451657,248.428427 C215.646427,218.344916 103.95339,121.373597 110.834193,74.488124 C115.314716,44.0845752 153.399161,25.2023711 180.122281,41.0442203 C222.207193,66.0071341 261.411769,194.982189 270.692852,241.547624 C272.826435,252.108857 269.412703,254.402458 260.451657,248.428427 Z"></path>
            <path fill-rule="nonzero" fill="#000319" id="形状" d="M1017.17999,215.944636 C1017.17999,282.049791 963.59117,335.638607 897.486015,335.638607 C831.38086,335.638607 777.792044,282.049791 777.792044,215.944636 C777.792044,149.839481 831.38086,96.2506642 897.486015,96.2506642 C963.59117,96.2506642 1017.17999,149.839481 1017.17999,215.944636 L1017.17999,215.944636 Z M799.394565,258.669623 C868.095918,339.105678 927.409508,345.186388 977.335335,276.911752 C1018.78017,220.105121 1003.09834,165.218715 951.412309,123.45384 C836.198861,95.6105895 785.52628,140.682517 799.394565,258.669623 Z"></path>
            <path fill-rule="nonzero" fill="#FFFFFF" id="形状" d="M951.412309,123.45384 C949.705443,153.964068 950.07882,184.154258 952.53244,214.024411 C956.21287,258.349585 920.688723,268.910818 882.924315,259.309697 C857.321327,252.802271 829.478077,252.588913 799.394565,258.669623 C785.52628,140.682517 836.198861,95.6105895 951.412309,123.45384 Z M823.877423,217.224785 C846.120019,176.099985 860.5217,167.779013 904.686855,147.936697 C911.40764,144.949682 911.620998,141.482611 905.32693,137.535483 C897.486015,132.734923 889.485081,139.13567 884.204465,140.415819 C843.453041,150.336977 821.210445,175.299891 817.476676,215.304561 C816.516564,226.29251 818.650146,226.932585 823.877423,217.224785 Z"></path>
            <path fill-rule="nonzero" fill="#D1D4DC" id="路径" d="M951.412309,123.45384 C1003.09834,165.218715 1018.78017,220.105121 977.335335,276.911752 C927.409508,345.186388 868.095918,339.105678 799.394565,258.669623 C829.478077,252.588913 857.321327,252.802271 882.924315,259.309697 C920.688723,268.910818 956.21287,258.349585 952.53244,214.024411 C950.07882,184.154258 949.705443,153.964068 951.412309,123.45384 Z"></path>
            <path fill-rule="nonzero" fill="#D1D4DC" id="路径" d="M904.686855,147.936697 C860.5217,167.779013 846.120019,176.099985 823.877423,217.224785 C818.650146,226.932585 816.516564,226.29251 817.476676,215.304561 C821.210445,175.299891 843.453041,150.336977 884.204465,140.415819 C889.485081,139.13567 897.486015,132.734923 905.32693,137.535483 C911.620998,141.482611 911.40764,144.949682 904.686855,147.936697 Z"></path>
            <path fill-rule="nonzero" fill="#000E3F" id="路径" d="M1324.41585,310.99573 C1252.56746,242.02768 1169.67779,202.343048 1069.50609,196.262338 C1064.59885,195.942301 1062.30525,193.328662 1062.62529,188.421423 C1062.73197,187.034594 1062.78531,185.647766 1062.78531,184.260937 C1062.78531,181.380601 1064.22548,180.047112 1067.10581,180.26047 C1171.33131,186.661217 1260.78175,225.759114 1335.45714,297.554161 C1338.87087,300.861214 1338.71085,304.008248 1334.97708,306.995263 C1333.37689,308.168734 1332.04341,309.395544 1330.97661,310.675693 C1328.94971,313.129313 1326.76279,313.235992 1324.41585,310.99573 Z"></path>
            <path fill-rule="nonzero" fill="#FD8A02" id="路径" d="M50.0270952,202.023011 C93.5521756,222.345383 138.357406,255.949305 175.641758,295.3139 C183.215975,303.421513 181.45577,307.048603 170.361141,306.19517 C122.248859,302.674759 74.7766507,291.100075 27.9445176,271.471117 C-26.461833,248.428427 8.26222018,182.500732 50.0270952,202.023011 Z"></path>
            <path fill-rule="nonzero" fill="#000E3F" id="路径" d="M1238.16578,398.20591 C1198.32113,320.436832 1138.15411,294.353788 1059.58494,256.269342 C1033.98195,243.787886 1035.20876,239.947437 1063.26537,244.747998 C1130.79325,256.109324 1221.52384,322.037019 1254.00763,393.565368 C1255.82117,397.619175 1254.48769,400.60619 1250.00716,402.526414 C1244.77989,404.659997 1240.83276,403.219829 1238.16578,398.20591 Z"></path>
            <path fill-rule="nonzero" fill="#000E3F" id="形状" d="M833.9586,1007.71706 C797.154304,1073.80477 717.304983,1133.97179 757.949727,1237.50388 C787.073127,1311.85922 816.356545,1386.16123 845.799982,1460.4099 C857.161308,1488.89322 854.921046,1532.57832 825.797647,1543.93965 C740.827729,1577.06351 663.858745,1626.98934 630.894897,1518.33666 C611.265939,1453.47575 591.530302,1388.61485 571.687986,1323.75394 C548.005222,1246.14489 529.123018,1225.82251 447.353473,1201.65969 C230.154787,1137.65222 107.58048,998.222614 79.6305506,783.370868 C48.4269084,543.982926 163.320319,355.000867 410.22914,314.996197 C773.471539,256.109324 993.497222,720.643547 833.9586,1007.71706 Z M111.314249,582.547427 C63.8420411,760.914914 99.0994898,916.826446 217.086595,1050.28202 C264.452124,1103.83494 322.325546,1140.8526 390.706861,1161.33499 C474.876686,1193.81878 553.765894,1203.4199 582.249219,1304.87174 C603.90508,1381.89406 627.001109,1458.43633 651.537306,1534.49854 C661.298446,1564.90209 684.181117,1582.50415 714.744684,1565.38215 L802.754957,1536.09873 C837.212313,1525.21746 847.400169,1502.22811 833.318525,1467.13068 C804.8352,1395.54899 775.76514,1324.12732 746.108345,1252.86567 C702.583265,1148.21345 756.989615,1103.72826 802.114883,1020.67857 C884.684521,890.316685 896.045847,752.433924 836.198861,607.030285 C724.825861,336.758738 435.352072,226.825906 200.76469,430.369664 C151.478937,473.25467 121.662123,523.980591 111.314249,582.547427 Z"></path>
            <path fill-rule="nonzero" fill="#FF8DDF" id="形状" d="M802.114883,1020.67857 C727.119462,1038.70734 653.990926,1062.49678 582.729275,1092.0469 L571.367949,1092.68697 C564.113769,1083.08585 554.512648,1076.25839 542.564587,1072.20458 C467.835864,1046.76161 387.826525,1024.83905 329.259689,971.392815 C216.179823,868.234107 143.531343,738.618978 111.314249,582.547427 C121.662123,523.980591 151.478937,473.25467 200.76469,430.369664 C435.352072,226.825906 724.825861,336.758738 836.198861,607.030285 C896.045847,752.433924 884.684521,890.316685 802.114883,1020.67857 Z M453.914239,404.606657 C619.69359,438.050561 726.586067,550.223654 793.473874,698.881006 C794.690165,701.47887 797.058973,703.353644 799.845222,703.923559 C802.631472,704.493473 805.498087,703.689582 807.555518,701.761342 C815.396433,694.560502 806.755424,686.079512 804.8352,679.678765 C762.270232,535.341917 620.81372,378.84365 454.554314,392.605256 C451.570016,392.905288 449.250239,395.336537 449.090501,398.331622 C448.930764,401.326707 450.978783,403.990906 453.914239,404.606657 Z M591.85034,594.868865 C591.85034,576.575059 577.020279,561.744999 558.726473,561.744999 C540.432667,561.744999 525.602607,576.575059 525.602607,594.868865 C525.602607,613.162672 540.432667,627.992732 558.726473,627.992732 C577.020279,627.992732 591.85034,613.162672 591.85034,594.868865 Z M463.51536,694.240465 C449.711725,704.037974 430.707381,701.443285 420.150298,688.319774 L396.467533,659.356393 C384.946189,645.16807 381.852494,646.874936 387.18645,664.47699 C413.429513,751.047095 530.243148,712.96265 494.398964,622.392078 C493.332173,619.831779 491.678647,619.405063 489.438385,621.111929 L484.157769,624.952377 C481.064075,627.192638 480.210642,630.126314 481.59747,633.753404 C491.411949,658.396281 485.384579,678.558634 463.51536,694.240465 Z M641.812971,654.744654 C636.67064,637.926772 609.345603,631.372947 580.780247,640.106146 C552.215131,648.839428 533.226442,669.552538 538.367297,686.370746 C543.509628,703.188628 570.834666,709.742453 599.400021,701.009255 C627.965137,692.275972 646.953826,671.562862 641.812971,654.744654 L641.812971,654.744654 Z M350.382154,679.198709 C350.382154,660.993278 335.623737,646.234861 317.418306,646.234861 C308.67575,646.234861 300.291267,649.707828 294.109346,655.889749 C287.927426,662.071669 284.454459,670.456153 284.454459,679.198709 C284.454459,687.941265 287.927426,696.325748 294.109346,702.507669 C300.291267,708.68959 308.67575,712.162557 317.418306,712.162557 C335.623737,712.162557 350.382154,697.404139 350.382154,679.198709 L350.382154,679.198709 Z M389.957974,738.469627 C383.440668,721.755267 355.997379,716.845622 328.661219,727.503547 C301.325037,738.161617 284.447529,760.351406 290.964019,777.066132 C297.481325,793.780493 324.924613,798.690138 352.260773,788.032212 C379.596955,777.374143 396.474463,755.184354 389.957974,738.469627 Z"></path>
            <path fill-rule="nonzero" fill="#000319" id="形状" d="M1236.40558,1241.9844 C1276.73028,1164.21532 1225.20427,1110.28903 1191.60035,1044.20131 C1105.19026,873.94144 1136.55392,668.15742 1256.24789,523.820572 C1339.77764,423.008805 1442.82967,349.560232 1574.84508,352.600587 C1711.34101,355.960979 1862.8787,442.211046 1927.68626,567.025615 C1990.73362,688.639811 1970.09121,868.820843 1909.1241,987.234664 C1832.74185,1135.62532 1710.22088,1221.76871 1541.56119,1245.66483 C1479.954,1254.46586 1438.50917,1279.10873 1416.58661,1333.83512 C1383.4094,1416.40476 1349.32542,1498.441 1314.33467,1579.94385 C1290.17185,1636.1104 1069.02604,1566.6623 1120.71207,1466.33059 C1159.22323,1391.54852 1197.78773,1316.76646 1236.40558,1241.9844 Z M1402.98502,416.928095 C1192.72048,543.342851 1093.82893,807.533689 1206.32206,1031.55984 C1246.48675,1114.92957 1293.85228,1165.81551 1243.12636,1261.34666 C1204.50852,1333.88846 1166.69077,1406.59028 1129.67312,1479.45212 C1114.73804,1509.00223 1122.89899,1529.43129 1154.15597,1540.73927 L1246.16671,1584.74441 C1278.97054,1597.38588 1298.65284,1581.38402 1311.45434,1550.82045 C1342.71132,1475.71835 1373.4349,1400.50957 1403.62509,1325.19411 C1438.50917,1237.82391 1518.99856,1233.50341 1599.0079,1218.30164 C1823.35409,1145.65316 1939.26095,987.608041 1946.72849,744.166292 C1955.52951,458.212914 1645.41332,286.992929 1402.98502,416.928095 Z"></path>
            <path fill-rule="nonzero" fill="#FF8DDF" id="形状" d="M1599.0079,1218.30164 C1535.53382,1171.68286 1466.35242,1136.47875 1391.46367,1112.68931 L1382.82267,1104.0483 C1345.05826,965.792161 1266.96914,884.82271 1292.09208,733.765078 C1308.09394,637.967229 1345.05826,532.354902 1402.98502,416.928095 C1645.41332,286.992929 1955.52951,458.212914 1946.72849,744.166292 C1939.26095,987.608041 1823.35409,1145.65316 1599.0079,1218.30164 Z M1778.38884,527.981058 C1877.28038,672.317906 1873.91999,817.134809 1816.47328,977.953581 C1814.88527,982.0934 1816.82237,986.751255 1820.87768,988.544127 C1824.93299,990.337 1829.68181,988.63503 1831.67506,984.674366 C1912.16445,836.49707 1914.08468,644.314637 1788.47001,519.500068 C1786.95503,517.699239 1784.5944,516.843439 1782.27734,517.255038 C1779.96029,517.666637 1778.03883,519.283105 1777.23676,521.495533 C1776.43468,523.707961 1776.87386,526.180229 1778.38884,527.981058 Z M1524.27918,628.952844 C1524.27918,610.659038 1509.44912,595.828978 1491.15531,595.828978 C1472.8615,595.828978 1458.03144,610.659038 1458.03144,628.952844 C1458.03144,647.24665 1472.8615,662.07671 1491.15531,662.07671 C1509.44912,662.07671 1524.27918,647.24665 1524.27918,628.952844 Z M1502.1646,723.75911 C1505.48441,715.62519 1503.36072,705.65838 1496.26076,696.051413 C1489.16079,686.444445 1477.66618,677.984333 1464.30578,672.532331 C1450.94591,667.080253 1436.81462,665.082631 1425.02064,666.978922 C1413.22667,668.875213 1404.73612,674.510082 1401.41684,682.643911 C1398.09702,690.777831 1400.22071,700.744641 1407.32068,710.351609 C1414.42064,719.958576 1425.91525,728.418688 1439.27566,733.87069 C1452.63552,739.322768 1466.76681,741.32039 1478.56079,739.424099 C1490.35477,737.527808 1498.84531,731.89294 1502.1646,723.75911 L1502.1646,723.75911 Z M1538.2008,678.238597 C1497.8761,746.406554 1598.52784,812.014212 1652.77418,748.966853 C1657.21695,743.832877 1659.31168,737.075637 1658.55191,730.328882 C1657.79214,723.582127 1654.24703,717.460004 1648.77371,713.442706 C1619.86367,692.533599 1587.69991,678.665313 1552.28245,671.83785 C1546.09506,670.664379 1541.40118,672.797962 1538.2008,678.238597 Z M1758.70654,738.40562 C1758.70654,719.846686 1743.66155,704.801697 1725.10262,704.801697 C1706.54368,704.801697 1691.4987,719.846686 1691.4987,738.40562 C1691.4987,756.964554 1706.54368,772.009542 1725.10262,772.009542 C1743.66155,772.009542 1758.70654,756.964554 1758.70654,738.40562 L1758.70654,738.40562 Z M1742.67907,839.118175 C1746.60031,831.114693 1745.28896,820.954185 1739.03349,810.871915 C1732.77802,800.789645 1722.09088,791.611526 1709.32318,785.3567 C1696.55546,779.101818 1682.75306,776.282615 1670.95244,777.519305 C1659.15183,778.755994 1650.31968,783.947269 1646.39903,791.95107 C1642.47779,799.954553 1643.78915,810.11506 1650.04461,820.19733 C1656.30008,830.279601 1666.98722,839.457719 1679.75493,845.712545 C1692.52264,851.967427 1706.32504,854.78663 1718.12566,853.549941 C1729.92627,852.313251 1738.75843,847.121976 1742.67907,839.118175 L1742.67907,839.118175 Z"></path>
            <path fill-rule="nonzero" fill="#E3D7FE" id="路径" d="M793.473874,698.881006 C726.586067,550.223654 619.69359,438.050561 453.914239,404.606657 C450.978783,403.990906 448.930764,401.326707 449.090501,398.331622 C449.250239,395.336537 451.570016,392.905288 454.554314,392.605256 C620.81372,378.84365 762.270232,535.341917 804.8352,679.678765 C806.755424,686.079512 815.396433,694.560502 807.555518,701.761342 C805.498087,703.689582 802.631472,704.493473 799.845222,703.923559 C797.058973,703.353644 794.690165,701.47887 793.473874,698.881006 L793.473874,698.881006 Z"></path>
            <path fill-rule="nonzero" fill="#BF6EB7" id="路径" d="M1402.98502,416.928095 C1345.05826,532.354902 1308.09394,637.967229 1292.09208,733.765078 C1266.96914,884.82271 1345.05826,965.792161 1382.82267,1104.0483 L1206.32206,1031.55984 C1093.82893,807.533689 1192.72048,543.342851 1402.98502,416.928095 Z"></path>
            <path fill-rule="nonzero" fill="#E3D7FE" id="路径" d="M1816.47328,977.953581 C1873.91999,817.134809 1877.28038,672.317906 1778.38884,527.981058 C1776.87386,526.180229 1776.43468,523.707961 1777.23676,521.495533 C1778.03883,519.283105 1779.96029,517.666637 1782.27734,517.255038 C1784.5944,516.843439 1786.95503,517.699239 1788.47001,519.500068 C1914.08468,644.314637 1912.16445,836.49707 1831.67506,984.674366 C1829.68181,988.63503 1824.93299,990.337 1820.87768,988.544127 C1816.82237,986.751255 1814.88527,982.0934 1816.47328,977.953581 Z"></path>
            <circle r="33.1238664" cy="594.868865" cx="558.726473" fill-rule="nonzero" fill="#000E3F" id="椭圆形"></circle>
            <path fill-rule="nonzero" fill="#BF6EB7" id="路径" d="M111.314249,582.547427 C143.531343,738.618978 216.179823,868.234107 329.259689,971.392815 C387.826525,1024.83905 467.835864,1046.76161 542.564587,1072.20458 C554.512648,1076.25839 564.113769,1083.08585 571.367949,1092.68697 L390.706861,1161.33499 C322.325546,1140.8526 264.452124,1103.83494 217.086595,1050.28202 C99.0994898,916.826446 63.8420411,760.914914 111.314249,582.547427 Z"></path>
            <circle r="33.1238664" cy="628.952844" cx="1491.15531" fill-rule="nonzero" fill="#000E3F" id="椭圆形"></circle>
            <path fill-rule="nonzero" fill="#000E3F" id="路径" d="M463.51536,694.240465 C485.384579,678.558634 491.411949,658.396281 481.59747,633.753404 C480.210642,630.126314 481.064075,627.192638 484.157769,624.952377 L489.438385,621.111929 C491.678647,619.405063 493.332173,619.831779 494.398964,622.392078 C530.243148,712.96265 413.429513,751.047095 387.18645,664.47699 C381.852494,646.874936 384.946189,645.16807 396.467533,659.356393 L420.150298,688.319774 C430.707381,701.443285 449.711725,704.037974 463.51536,694.240465 L463.51536,694.240465 Z"></path>
            <ellipse ry="31.843717" rx="54.0863132" cy="670.5577" cx="590.090134" transform="translate(590.090134, 670.557700) rotate(-17.000000) translate(-590.090134, -670.557700)" fill-rule="nonzero" fill="#FC09B2" id="椭圆形"></ellipse>
            <circle r="32.9638477" cy="679.198709" cx="317.418306" fill-rule="nonzero" fill="#000E3F" id="椭圆形"></circle>
            <ellipse ry="33.1238664" rx="54.4063506" cy="703.201511" cx="1451.79072" transform="translate(1451.790716, 703.201511) rotate(22.200000) translate(-1451.790716, -703.201511)" fill-rule="nonzero" fill="#FC09B2" id="椭圆形"></ellipse>
            <path fill-rule="nonzero" fill="#FFFFFF" id="路径" d="M1552.28245,671.83785 C1587.69991,678.665313 1619.86367,692.533599 1648.77371,713.442706 C1654.24703,717.460004 1657.79214,723.582127 1658.55191,730.328882 C1659.31168,737.075637 1657.21695,743.832877 1652.77418,748.966853 C1598.52784,812.014212 1497.8761,746.406554 1538.2008,678.238597 C1541.40118,672.797962 1546.09506,670.664379 1552.28245,671.83785 Z"></path>
            <circle r="33.6039224" cy="738.40562" cx="1725.10262" fill-rule="nonzero" fill="#000E3F" id="椭圆形"></circle>
            <ellipse ry="32.4837917" rx="53.1262012" cy="757.76788" cx="340.460996" transform="translate(340.460996, 757.767880) rotate(-21.300000) translate(-340.460996, -757.767880)" fill-rule="nonzero" fill="#FC09B2" id="椭圆形"></ellipse>
            <ellipse ry="33.6039224" rx="53.6062572" cy="815.534623" cx="1694.53905" transform="translate(1694.539051, 815.534623) rotate(26.100000) translate(-1694.539051, -815.534623)" fill-rule="nonzero" fill="#FC09B2" id="椭圆形"></ellipse>
            <path fill-rule="nonzero" fill="#915EFD" id="路径" d="M802.114883,1020.67857 C756.989615,1103.72826 702.583265,1148.21345 746.108345,1252.86567 C775.76514,1324.12732 804.8352,1395.54899 833.318525,1467.13068 C847.400169,1502.22811 837.212313,1525.21746 802.754957,1536.09873 C794.220628,1496.52078 780.779059,1460.08986 762.43025,1426.80597 C732.880135,1336.44876 699.809608,1248.81186 663.21867,1163.89529 C655.751132,1146.61327 642.256223,1139.09239 622.733944,1141.33265 C605.238569,1128.3178 591.903679,1111.88921 582.729275,1092.0469 C653.990926,1062.49678 727.119462,1038.70734 802.114883,1020.67857 Z"></path>
            <path fill-rule="nonzero" fill="#6D4ACE" id="路径" d="M1382.82267,1104.0483 L1391.46367,1112.68931 L1378.18212,1168.69585 C1355.03276,1164.64204 1339.56428,1170.29603 1331.77671,1185.65783 C1272.5698,1304.07165 1213.36289,1422.43213 1154.15597,1540.73927 C1122.89899,1529.43129 1114.73804,1509.00223 1129.67312,1479.45212 C1166.69077,1406.59028 1204.50852,1333.88846 1243.12636,1261.34666 C1293.85228,1165.81551 1246.48675,1114.92957 1206.32206,1031.55984 L1382.82267,1104.0483 Z"></path>
            <path fill-rule="nonzero" fill="#6D4ACE" id="路径" d="M571.367949,1092.68697 L582.729275,1092.0469 C591.903679,1111.88921 605.238569,1128.3178 622.733944,1141.33265 L618.733477,1145.33312 C596.117504,1152.37394 588.063231,1167.09566 594.570657,1189.49827 C631.054916,1315.91303 671.112925,1441.20765 714.744684,1565.38215 C684.181117,1582.50415 661.298446,1564.90209 651.537306,1534.49854 C627.001109,1458.43633 603.90508,1381.89406 582.249219,1304.87174 C553.765894,1203.4199 474.876686,1193.81878 390.706861,1161.33499 L571.367949,1092.68697 Z"></path>
            <path fill-rule="nonzero" fill="#915EFD" id="路径" d="M1391.46367,1112.68931 C1466.35242,1136.47875 1535.53382,1171.68286 1599.0079,1218.30164 C1518.99856,1233.50341 1438.50917,1237.82391 1403.62509,1325.19411 C1373.4349,1400.50957 1342.71132,1475.71835 1311.45434,1550.82045 C1298.65284,1581.38402 1278.97054,1597.38588 1246.16671,1584.74441 L1284.41118,1485.21279 C1349.6988,1344.28967 1389.17007,1254.78589 1402.825,1216.70145 C1409.33243,1198.45932 1401.54485,1183.79094 1379.46227,1172.69631 C1379.03556,1171.41616 1378.60884,1170.08267 1378.18212,1168.69585 L1391.46367,1112.68931 Z"></path>
            <path fill-rule="nonzero" fill="#FFCF00" id="路径" d="M622.733944,1141.33265 C642.256223,1139.09239 655.751132,1146.61327 663.21867,1163.89529 C699.809608,1248.81186 732.880135,1336.44876 762.43025,1426.80597 C717.198304,1405.57683 688.288263,1370.10602 675.700127,1320.39355 C660.445013,1260.8666 641.45613,1202.51313 618.733477,1145.33312 L622.733944,1141.33265 Z"></path>
            <path fill-rule="nonzero" fill="#BF9F10" id="路径" d="M618.733477,1145.33312 C641.45613,1202.51313 660.445013,1260.8666 675.700127,1320.39355 C688.288263,1370.10602 717.198304,1405.57683 762.43025,1426.80597 C780.779059,1460.08986 794.220628,1496.52078 802.754957,1536.09873 L714.744684,1565.38215 C671.112925,1441.20765 631.054916,1315.91303 594.570657,1189.49827 C588.063231,1167.09566 596.117504,1152.37394 618.733477,1145.33312 Z"></path>
            <path fill-rule="nonzero" fill="#BF9F10" id="路径" d="M1378.18212,1168.69585 C1378.60884,1170.08267 1379.03556,1171.41616 1379.46227,1172.69631 C1363.24705,1217.50154 1338.12411,1268.5475 1304.09348,1325.83419 C1275.29011,1374.26651 1268.72935,1427.39271 1284.41118,1485.21279 L1246.16671,1584.74441 L1154.15597,1540.73927 C1213.36289,1422.43213 1272.5698,1304.07165 1331.77671,1185.65783 C1339.56428,1170.29603 1355.03276,1164.64204 1378.18212,1168.69585 Z"></path>
            <path fill-rule="nonzero" fill="#FFCF00" id="路径" d="M1379.46227,1172.69631 C1401.54485,1183.79094 1409.33243,1198.45932 1402.825,1216.70145 C1389.17007,1254.78589 1349.6988,1344.28967 1284.41118,1485.21279 C1268.72935,1427.39271 1275.29011,1374.26651 1304.09348,1325.83419 C1338.12411,1268.5475 1363.24705,1217.50154 1379.46227,1172.69631 Z"></path>
            <path fill-rule="nonzero" fill="#FD8A02" id="路径" d="M2015.85656,1382.32078 C2015.80705,1382.34937 2015.74605,1382.34937 2015.69654,1382.32078 L2013.93633,1381.20065 C1972.87948,1353.50779 1935.50817,1323.98294 1910.05558,1299.13065 C1884.603,1274.27837 1873.15745,1256.1377 1878.24049,1248.70518 L1878.56053,1248.06511 C1889.30566,1232.76496 1966.94794,1266.89894 2052.1808,1324.39402 L2053.941,1325.51415 C2053.96959,1325.56366 2053.96959,1325.62466 2053.941,1325.67417 L2015.85656,1382.32078 Z"></path>
            <path fill-rule="nonzero" fill="#FD8A02" id="路径" d="M1795.83087,1304.23167 C1838.07581,1346.4766 1902.08328,1421.84539 1914.88477,1460.56991 C1936.96735,1526.49761 1854.55773,1560.58159 1825.11429,1492.25361 C1800.15138,1434.00681 1786.60313,1372.93302 1784.46955,1309.03223 C1784.14951,1297.9376 1787.93662,1296.33741 1795.83087,1304.23167 Z"></path>
            <path fill-rule="nonzero" fill="#FD8A02" id="路径" d="M1718.54185,1484.89275 C1724.14251,1528.0978 1679.81733,1573.70312 1645.09328,1525.21746 C1642.21294,1521.16365 1640.98613,1516.68313 1641.41285,1511.77589 C1646.74681,1457.26286 1661.62854,1405.31013 1686.05806,1355.9177 C1687.37597,1353.32107 1690.14952,1351.76917 1693.02773,1352.0179 C1695.90595,1352.26664 1698.29037,1354.26429 1699.01957,1357.03783 C1711.50103,1398.64269 1712.9412,1441.36767 1718.54185,1484.89275 Z"></path>
        </g>
    </g>
</svg>